<?xml version="1.0" standalone="no"?>
<!DOCTYPE svg PUBLIC "-//W3C//DTD SVG 20010904//EN"
 "http://www.w3.org/TR/2001/REC-SVG-20010904/DTD/svg10.dtd">
<svg version="1.0" xmlns="http://www.w3.org/2000/svg"
 width="2766.000000pt" height="2766.000000pt" viewBox="0 0 2766.000000 2766.000000"
 preserveAspectRatio="xMidYMid meet">
<metadata>
Created by potrace 1.14, written by Peter Selinger 2001-2017
</metadata>
<g transform="translate(0.000000,2766.000000) scale(0.100000,-0.100000)"
fill="#000000" stroke="none">
<path d="M14153 23659 c-49 -26 -51 -41 -47 -509 2 -239 4 -551 4 -693 0 -174
4 -266 12 -283 23 -50 109 -71 157 -38 35 25 50 71 56 175 11 189 15 1242 5
1279 -15 55 -41 73 -108 77 -31 1 -67 -2 -79 -8z"/>
<path d="M12837 23654 c-2 -2 -121 -13 -222 -20 -33 -2 -85 -6 -115 -10 -30
-3 -73 -7 -95 -9 -22 -1 -63 -5 -90 -9 -28 -3 -66 -8 -85 -10 -67 -8 -194 -38
-221 -51 -57 -30 -75 -94 -38 -134 37 -39 76 -46 159 -27 82 19 211 36 221 30
17 -10 27 -47 34 -124 4 -41 8 -82 10 -92 2 -10 6 -53 10 -95 3 -43 7 -89 10
-103 2 -14 6 -56 10 -95 3 -38 8 -88 10 -110 2 -22 7 -68 10 -102 5 -65 32
-257 40 -283 2 -8 7 -35 10 -60 3 -25 8 -52 10 -60 2 -8 6 -33 10 -55 8 -56
51 -140 77 -152 59 -26 133 5 143 59 11 61 12 71 3 122 -66 416 -76 501 -93
781 -1 28 -6 97 -11 155 -4 58 -8 134 -8 169 -1 73 -1 73 106 85 29 4 64 8 78
11 14 2 41 6 60 9 135 17 206 69 178 131 -14 31 -63 47 -145 50 -35 1 -64 1
-66 -1z"/>
<path d="M15517 23567 c-52 -16 -84 -50 -91 -95 -5 -35 -8 -60 -21 -197 -3
-33 -8 -76 -10 -95 -10 -90 -16 -163 -20 -254 -3 -54 -7 -137 -11 -185 -29
-410 -33 -625 -14 -660 21 -40 109 -68 156 -51 42 16 49 46 60 243 3 65 7 130
9 145 2 15 6 74 10 132 10 144 9 142 103 134 42 -4 123 -7 179 -8 94 -1 103 1
127 23 31 29 35 80 9 103 -40 35 -149 65 -243 66 -45 1 -127 15 -138 24 -7 7
-11 24 -8 42 2 17 7 63 11 101 4 39 8 80 10 93 2 13 7 56 10 95 4 40 11 89 16
110 9 35 12 37 48 37 20 0 62 -4 92 -10 30 -5 72 -12 94 -15 23 -3 50 -7 60
-9 11 -2 43 -7 70 -11 28 -4 61 -9 75 -11 57 -9 122 -4 155 12 65 30 56 101
-17 137 -40 20 -187 53 -278 62 -30 4 -62 8 -70 10 -8 2 -44 7 -80 10 -36 3
-72 8 -80 10 -8 2 -40 7 -70 10 -30 3 -66 8 -80 10 -14 2 -42 -2 -63 -8z"/>
<path d="M10765 23372 c-56 -12 -98 -71 -90 -128 2 -16 29 -134 59 -262 85
-356 109 -508 110 -697 1 -159 -22 -254 -71 -297 -56 -51 -206 -62 -285 -22
-81 41 -129 116 -213 336 -34 88 -66 187 -181 567 -36 118 -72 227 -80 243
-49 94 -230 49 -227 -57 2 -62 223 -732 303 -917 126 -293 263 -394 520 -384
119 5 178 19 251 58 101 53 166 148 194 283 22 107 22 335 0 495 -2 19 -7 53
-10 75 -3 23 -7 50 -9 60 -2 11 -7 40 -11 65 -4 25 -9 52 -11 60 -1 8 -14 69
-29 135 -14 66 -28 128 -31 137 -2 9 -7 27 -9 40 -21 113 -49 179 -83 197 -22
12 -72 18 -97 13z"/>
<path d="M17375 23231 c-12 -5 -27 -16 -34 -24 -11 -15 -34 -87 -46 -147 -3
-14 -23 -99 -45 -190 -23 -91 -43 -183 -46 -205 -3 -22 -14 -78 -24 -125 -77
-339 -83 -556 -17 -683 45 -87 137 -162 265 -217 136 -58 222 -66 326 -30 148
50 267 191 401 473 81 171 117 265 204 529 90 275 91 321 10 363 -63 33 -133
15 -163 -43 -11 -22 -74 -212 -82 -247 -10 -50 -109 -343 -137 -405 -133 -304
-223 -441 -314 -482 -52 -23 -99 -19 -173 16 -112 53 -153 116 -154 241 -1 73
2 107 20 223 10 64 22 117 111 485 94 392 96 409 41 450 -29 22 -111 32 -143
18z"/>
<path d="M8192 22580 c-43 -19 -88 -69 -99 -108 -15 -53 -7 -361 12 -477 3
-16 7 -45 10 -63 3 -17 8 -47 10 -66 3 -19 25 -123 51 -232 52 -223 104 -449
110 -479 16 -81 29 -117 52 -141 24 -23 33 -26 76 -21 40 4 55 11 79 37 28 32
29 36 24 99 -6 62 -10 88 -22 151 -9 41 -14 72 -25 130 -5 30 -15 71 -21 90
-5 19 -12 43 -14 53 -2 10 -7 27 -10 36 -3 10 2 27 12 38 19 21 259 131 303
139 27 4 57 -28 155 -171 89 -130 189 -257 214 -273 35 -24 113 -22 140 2 52
47 36 115 -55 240 -29 39 -62 85 -74 101 -12 17 -38 53 -58 81 -20 28 -71 97
-112 153 -166 228 -291 381 -411 501 -69 70 -143 139 -166 154 -56 37 -131 48
-181 26z m222 -395 c76 -79 196 -234 196 -253 0 -9 -67 -42 -167 -81 l-52 -20
-21 95 c-24 103 -49 301 -42 322 5 15 23 1 86 -63z"/>
<path d="M19465 22531 c-31 -13 -39 -27 -78 -131 -19 -52 -54 -144 -77 -205
-128 -334 -332 -928 -345 -1002 -14 -86 28 -118 286 -222 69 -27 188 -80 265
-117 168 -80 203 -86 246 -44 24 25 29 36 23 58 -19 80 -92 125 -410 257 -77
32 -146 64 -154 71 -17 15 -6 59 49 204 67 176 155 410 181 480 15 41 66 175
114 298 60 156 85 231 82 252 -5 32 -32 72 -60 89 -24 16 -98 23 -122 12z"/>
<path d="M6660 21815 c-44 -15 -145 -66 -230 -115 -36 -21 -81 -47 -100 -57
-149 -84 -262 -158 -280 -183 -32 -45 -36 -90 -11 -136 51 -96 475 -695 700
-988 129 -168 143 -171 318 -68 54 32 145 84 203 117 166 92 223 146 214 205
-10 64 -95 79 -176 32 -82 -47 -191 -114 -251 -155 -41 -27 -65 -37 -80 -33
-13 3 -49 45 -87 98 -113 160 -200 287 -200 292 0 4 130 97 194 139 112 73
146 168 69 198 -50 19 -117 -5 -248 -90 -87 -57 -124 -76 -136 -70 -19 9 -251
360 -255 384 -2 15 15 29 75 64 49 28 195 111 241 137 127 72 180 124 180 176
0 53 -67 78 -140 53z"/>
<path d="M22434 20800 c-21 -9 -44 -26 -50 -36 -6 -11 -28 -50 -49 -89 -44
-79 -120 -199 -429 -673 -212 -325 -247 -387 -243 -434 2 -24 48 -75 111 -123
21 -17 44 -35 50 -41 6 -6 43 -35 83 -66 142 -109 314 -155 471 -124 81 16
178 102 226 200 67 137 76 258 30 389 -17 48 -11 58 45 62 162 13 258 117 266
291 9 202 -94 413 -278 571 -95 82 -166 104 -233 73z m175 -285 c65 -75 109
-192 107 -290 -2 -131 -85 -176 -241 -130 -62 18 -150 58 -159 74 -3 4 32 66
77 137 46 71 100 155 120 187 20 31 43 57 51 57 8 0 28 -16 45 -35z m-299
-598 c91 -66 129 -135 130 -238 0 -31 -7 -75 -15 -98 -19 -55 -79 -132 -118
-152 -57 -30 -180 -13 -244 33 -70 50 -142 114 -143 125 0 13 186 294 242 365
29 38 30 38 60 22 17 -9 56 -34 88 -57z"/>
<path d="M4773 20454 c-189 -40 -414 -192 -447 -302 -18 -62 -2 -103 61 -157
89 -75 254 -235 729 -703 176 -173 206 -197 252 -207 35 -7 91 19 142 67 14
13 57 49 96 80 230 183 319 417 228 602 -34 70 -128 160 -206 198 -84 41 -204
58 -313 45 -18 -2 -20 4 -21 73 -1 91 -6 115 -33 167 -30 60 -104 115 -172
128 -9 2 -32 8 -52 13 -50 14 -190 12 -264 -4z m227 -224 c11 -6 31 -25 45
-44 44 -58 30 -131 -50 -256 -50 -78 -68 -95 -89 -83 -32 18 -316 305 -310
314 9 16 76 55 114 68 87 28 238 29 290 1z m455 -373 c79 -25 113 -51 173
-132 35 -48 31 -131 -11 -204 -24 -42 -95 -113 -159 -158 l-46 -33 -78 79
c-163 162 -254 261 -254 274 0 15 75 95 127 134 66 51 164 67 248 40z"/>
<path d="M13387 19564 c-1 -1 -40 -5 -87 -8 -505 -36 -1023 -246 -1453 -589
-130 -104 -455 -428 -579 -577 -285 -344 -481 -646 -689 -1060 -206 -411 -357
-809 -518 -1365 -60 -209 -162 -668 -186 -835 -3 -25 -8 -52 -10 -60 -2 -8 -7
-40 -10 -70 -4 -30 -8 -57 -10 -60 -2 -3 -6 -34 -10 -69 -4 -34 -8 -70 -10
-79 -1 -9 -6 -51 -10 -92 -4 -41 -9 -83 -11 -93 -1 -10 -6 -53 -9 -95 -4 -42
-8 -88 -10 -102 -2 -14 -7 -74 -11 -135 -3 -60 -8 -128 -10 -150 -22 -299 -23
-1144 0 -1355 2 -19 7 -69 10 -110 15 -176 30 -316 46 -415 5 -33 12 -78 15
-100 4 -22 8 -47 10 -55 2 -8 7 -35 10 -60 11 -82 65 -333 100 -470 20 -74 38
-144 40 -155 22 -92 140 -441 207 -610 131 -332 310 -679 480 -934 68 -102
190 -269 234 -321 267 -314 496 -522 789 -717 339 -225 666 -372 1045 -472 74
-19 180 -42 210 -46 32 -4 126 -18 145 -21 130 -25 589 -25 745 0 14 3 45 7
70 10 83 11 266 48 350 72 30 8 64 17 75 19 33 7 235 75 305 102 392 152 772
383 1145 696 219 184 501 456 680 657 32 36 72 81 89 100 27 30 166 195 215
255 34 42 229 303 272 365 126 179 409 626 409 645 0 3 13 26 29 52 138 227
408 792 524 1098 104 275 206 639 242 865 4 25 9 52 10 61 2 9 6 40 10 69 4
29 8 61 10 71 2 10 6 46 10 81 3 35 8 79 10 98 20 190 25 459 12 600 -25 260
-105 496 -233 690 -164 249 -453 428 -753 466 -25 3 -55 8 -66 11 -13 4 -4
-13 31 -53 94 -110 170 -225 226 -345 53 -113 116 -314 132 -424 4 -22 11 -69
16 -105 38 -253 31 -700 -16 -1005 -22 -143 -23 -155 -34 -210 -5 -27 -12 -63
-15 -80 -13 -66 -17 -84 -41 -185 -14 -58 -28 -116 -30 -130 -3 -14 -14 -56
-24 -95 -10 -38 -30 -113 -44 -165 -14 -52 -37 -133 -51 -180 -15 -47 -28 -92
-30 -100 -11 -45 -135 -395 -185 -520 -130 -327 -329 -734 -460 -940 -5 -8
-21 -35 -36 -60 -107 -179 -337 -500 -471 -658 -145 -172 -174 -204 -333 -363
-278 -280 -499 -457 -773 -618 -273 -160 -601 -286 -872 -336 -69 -12 -153
-25 -205 -30 -30 -4 -71 -8 -90 -11 -49 -6 -375 -5 -435 1 -27 3 -88 10 -135
16 -144 18 -137 17 -220 34 -14 2 -36 6 -50 9 -46 7 -264 65 -365 96 -236 73
-567 224 -767 351 -294 187 -628 482 -857 759 -30 36 -57 67 -60 70 -3 3 -41
50 -83 105 -303 399 -538 873 -681 1375 -20 69 -38 136 -40 150 -3 14 -12 52
-20 85 -22 87 -58 273 -72 380 -10 69 -16 113 -20 135 -3 14 -7 60 -10 103 -4
43 -8 87 -10 97 -25 128 -25 831 0 1042 2 18 7 67 10 108 4 41 9 84 11 95 2
11 6 43 9 70 6 57 12 101 18 130 3 11 8 43 12 70 28 202 110 563 191 845 192
666 529 1446 872 2020 236 395 507 745 812 1050 351 352 654 572 986 718 149
66 357 129 479 147 22 3 45 8 52 10 33 11 174 20 313 20 149 0 219 -6 325 -26
28 -5 62 -12 77 -14 64 -12 266 -79 357 -118 262 -116 536 -300 755 -508 45
-42 97 -91 116 -109 40 -36 169 -130 180 -130 4 0 11 16 14 35 5 26 0 57 -19
113 -214 623 -596 1036 -1176 1269 -112 46 -255 96 -305 108 -10 3 -46 11 -79
20 -33 8 -71 17 -85 20 -14 3 -36 7 -50 10 -80 17 -194 33 -285 41 -72 6 -333
12 -338 8z"/>
<path d="M24052 19393 c-16 -8 -62 -51 -103 -96 -41 -45 -153 -163 -250 -262
-97 -99 -214 -220 -260 -270 -46 -49 -150 -156 -230 -238 -103 -104 -149 -158
-153 -179 -14 -69 55 -144 123 -134 19 3 52 18 74 33 52 35 947 936 966 970
49 94 -72 222 -167 176z"/>
<path d="M24973 18316 c-17 -8 -87 -58 -155 -111 -179 -141 -173 -136 -303
-233 -171 -126 -462 -377 -569 -490 -56 -60 -69 -87 -63 -134 6 -46 29 -75 75
-95 53 -22 83 -3 287 178 116 103 109 99 122 83 37 -50 49 -501 17 -658 -14
-70 -15 -193 -1 -226 21 -49 61 -83 96 -83 72 0 96 62 116 303 3 36 8 88 10
115 7 72 7 374 0 385 -14 23 17 16 56 -13 97 -73 123 -88 185 -108 220 -71
436 72 478 317 29 163 -4 337 -103 557 -81 179 -163 250 -248 213z m71 -302
c47 -46 89 -300 65 -386 -25 -94 -120 -179 -199 -180 -49 0 -77 9 -125 42 -50
35 -205 185 -205 200 0 13 14 26 130 114 74 57 307 223 317 225 1 1 9 -6 17
-15z"/>
<path d="M2495 18182 c-52 -33 -135 -134 -339 -416 -144 -197 -161 -239 -136
-312 14 -39 258 -202 720 -480 359 -216 468 -274 509 -274 35 0 83 36 114 84
14 23 33 50 42 61 77 99 241 330 261 367 31 60 31 110 2 138 -37 34 -97 21
-144 -32 -23 -25 -118 -160 -192 -273 -46 -71 -59 -85 -78 -85 -12 0 -318 188
-371 228 -18 13 -33 29 -33 34 0 5 27 52 61 104 100 157 118 192 122 231 8 71
-27 104 -90 88 -39 -9 -118 -97 -188 -209 -37 -59 -68 -98 -82 -102 -17 -4
-63 22 -203 117 -100 67 -184 128 -187 136 -7 17 18 54 172 263 133 180 153
213 159 262 9 78 -50 112 -119 70z"/>
<path d="M15710 17119 c-14 -11 -52 -44 -85 -74 -51 -45 -160 -136 -228 -191
-36 -29 -165 -92 -277 -137 -184 -72 -366 -126 -615 -184 -41 -9 -331 -63
-369 -68 -23 -3 -66 -10 -96 -15 -93 -16 -113 -19 -160 -26 -25 -3 -54 -7 -65
-9 -11 -2 -38 -6 -60 -10 -192 -30 -430 -74 -610 -111 -11 -2 -31 -6 -45 -9
-63 -12 -355 -87 -445 -115 -55 -17 -107 -32 -115 -34 -49 -13 -229 -79 -310
-114 -472 -201 -814 -518 -996 -919 -20 -43 -42 -92 -50 -110 -17 -39 -18 -92
0 -115 7 -10 15 -18 18 -18 2 0 47 55 98 122 108 138 205 239 282 291 29 20
64 45 78 56 14 12 28 21 32 21 4 0 26 13 50 29 110 73 340 177 541 246 59 20
116 38 125 40 9 3 53 14 97 26 44 11 87 22 95 24 8 2 65 14 125 28 61 14 130
28 155 33 25 4 47 8 50 9 3 1 25 5 50 9 25 5 54 10 65 12 57 11 135 24 175 29
25 3 70 10 100 15 75 13 107 18 160 25 25 3 56 8 70 10 14 2 45 6 70 10 25 3
56 8 70 10 14 2 45 7 70 10 25 4 56 8 70 10 14 2 76 11 138 20 62 9 122 18
133 20 12 2 40 7 63 9 22 3 53 8 69 11 32 6 58 11 112 20 45 8 239 44 270 51
11 2 36 7 55 10 19 4 60 16 90 26 109 38 201 58 260 58 l61 0 -78 -102 c-130
-169 -193 -276 -236 -393 -36 -100 -54 -209 -72 -420 -13 -156 -42 -227 -110
-274 -18 -12 -100 -49 -182 -82 -228 -92 -403 -190 -578 -322 -44 -33 -82 -63
-85 -67 -11 -14 -158 -108 -203 -129 -138 -66 -280 -65 -416 3 -59 30 -170
105 -219 149 -280 247 -443 438 -579 678 l-52 91 -14 -50 c-31 -102 -1 -244
88 -422 112 -224 278 -418 510 -598 44 -34 91 -71 105 -82 33 -27 135 -76 185
-89 138 -36 338 -4 510 82 56 28 184 104 195 117 3 3 28 23 55 45 28 22 56 45
64 53 7 7 48 40 91 72 164 125 362 228 516 270 265 72 322 100 357 179 18 41
20 69 22 261 1 178 5 230 22 305 56 241 158 416 366 627 26 26 81 91 122 143
222 285 334 617 290 860 -6 33 -11 64 -12 68 -2 16 -8 15 -33 -4z"/>
<path d="M1348 16435 c-38 -21 -69 -77 -74 -136 -4 -48 -2 -54 29 -83 18 -17
139 -94 268 -170 129 -77 240 -145 248 -152 12 -11 5 -27 -41 -106 -56 -93
-80 -142 -169 -338 -27 -58 -54 -109 -62 -114 -9 -6 -53 13 -138 59 -142 77
-235 127 -332 179 -80 42 -111 45 -158 13 -43 -29 -68 -79 -69 -138 0 -59 25
-91 99 -128 31 -15 216 -109 411 -208 195 -98 414 -205 485 -237 72 -32 158
-71 193 -87 112 -51 194 -34 228 46 15 38 10 80 -14 115 -11 16 -101 66 -260
145 -133 66 -247 125 -254 132 -9 10 -2 36 32 115 66 155 130 285 183 366 57
89 48 89 214 -5 191 -107 342 -183 364 -183 70 0 126 68 113 137 -11 62 -76
114 -284 231 -19 10 -81 47 -138 81 -56 33 -104 61 -106 61 -5 0 -223 132
-426 258 -283 175 -287 177 -342 147z"/>
<path d="M26175 16420 c-11 -12 -20 -39 -21 -65 -2 -39 6 -58 78 -177 44 -73
84 -142 88 -153 10 -27 -3 -50 -38 -68 -43 -22 -200 -105 -277 -147 -38 -21
-141 -74 -229 -119 -160 -83 -474 -271 -533 -320 -32 -27 -56 -68 -56 -99 0
-51 6 -67 38 -99 32 -32 40 -35 79 -31 53 6 54 7 294 152 107 65 287 162 400
217 114 56 263 128 331 162 l124 61 16 -23 c9 -13 33 -56 54 -95 120 -222 147
-260 209 -292 27 -14 30 -13 54 12 24 23 26 31 21 77 -3 29 -13 70 -22 92 -39
89 -189 395 -324 662 -29 58 -121 199 -146 226 -47 50 -109 61 -140 27z"/>
<path d="M16118 15364 c-2 -1 -28 -5 -58 -9 -306 -37 -565 -218 -684 -479 -34
-73 -72 -205 -81 -276 -12 -101 -28 -146 -75 -204 -8 -10 -78 -60 -155 -112
-197 -131 -291 -225 -359 -359 -19 -38 -42 -98 -49 -132 -17 -69 -15 -213 2
-265 6 -19 14 -45 16 -58 9 -45 86 -190 143 -266 108 -146 219 -245 363 -322
74 -40 225 -96 287 -105 l32 -5 -17 31 c-18 32 -77 94 -216 226 -150 142 -242
293 -272 447 -8 41 -8 145 1 191 9 50 65 172 101 220 68 92 191 188 333 260
108 56 154 125 165 253 2 30 7 66 9 80 3 14 7 41 10 60 10 70 45 188 74 253
101 222 281 351 546 391 88 14 431 15 516 2 19 -3 67 -8 107 -11 39 -3 87 -8
105 -10 l33 -4 -40 35 c-77 68 -187 108 -350 129 -27 3 -68 10 -90 15 -75 16
-150 22 -272 25 -68 1 -124 1 -125 -1z"/>
<path d="M360 14174 c-49 -41 -68 -90 -171 -424 -18 -58 -34 -109 -35 -115 -1
-5 -14 -48 -28 -95 -31 -101 -86 -305 -92 -340 -3 -14 -7 -32 -9 -40 -22 -74
-23 -192 -1 -225 27 -41 52 -49 89 -28 49 29 73 73 91 170 9 48 18 93 20 98 3
10 29 126 31 135 3 19 24 41 41 42 19 1 383 -103 584 -167 118 -38 255 -73
410 -105 58 -12 116 -24 130 -27 57 -12 127 -7 153 10 56 36 79 110 53 171
-19 45 -71 68 -241 106 -77 17 -148 33 -157 36 -10 2 -26 6 -35 8 -151 35
-813 253 -819 271 -3 7 15 93 40 191 65 257 65 329 0 348 -15 5 -31 -1 -54
-20z"/>
<path d="M27195 14145 c-23 -8 -241 -77 -250 -79 -87 -19 -616 -195 -850 -283
-150 -56 -166 -65 -199 -103 -48 -57 -26 -160 41 -193 45 -22 87 -13 338 72
130 45 243 81 251 81 7 0 20 -12 28 -27 21 -42 133 -383 140 -427 4 -21 8 -41
10 -45 2 -3 7 -27 10 -53 4 -26 9 -54 12 -62 9 -22 -33 -39 -241 -94 -258 -69
-289 -80 -322 -114 -57 -60 -21 -185 60 -206 31 -8 92 -8 132 2 27 6 313 76
515 126 91 22 176 43 190 45 14 2 108 23 210 46 102 22 196 43 210 45 14 3 32
7 40 9 8 2 34 9 57 15 32 8 47 19 59 42 24 47 20 121 -11 174 -39 66 -76 80
-170 60 -43 -9 -207 -47 -363 -84 -114 -27 -165 -36 -171 -28 -5 6 -16 45 -25
86 -22 105 -30 132 -97 336 -32 100 -59 189 -59 198 0 23 36 37 305 112 132
37 253 73 268 81 81 41 66 212 -23 258 -27 14 -71 18 -95 10z"/>
<path d="M12357 14114 c-25 -85 -26 -245 -3 -325 37 -127 114 -208 273 -285
187 -92 203 -126 178 -389 -16 -163 -10 -569 10 -674 1 -9 6 -43 10 -76 3 -33
15 -102 26 -154 12 -51 22 -101 24 -110 2 -9 10 -43 19 -76 9 -33 19 -70 21
-81 8 -38 85 -256 121 -343 81 -195 179 -347 304 -471 191 -190 417 -296 695
-326 171 -19 414 3 595 52 72 20 212 65 225 73 6 3 15 6 20 7 21 3 234 100
356 161 172 86 296 169 385 259 41 42 73 78 71 81 -3 2 -92 -33 -198 -78 -223
-94 -344 -137 -508 -180 -118 -30 -292 -63 -391 -74 -62 -7 -262 -7 -300 -1
-14 2 -47 7 -75 11 -137 17 -322 91 -443 177 -228 162 -421 456 -554 847 -61
181 -121 441 -143 626 -3 28 -8 64 -10 81 -7 47 -16 168 -20 264 -14 296 -37
387 -121 480 -36 40 -117 91 -164 105 -119 34 -206 113 -299 271 -106 181 -98
169 -104 148z"/>
<path d="M13210 13674 c36 -37 74 -77 86 -88 73 -73 210 -286 283 -441 57
-119 184 -431 196 -480 1 -5 5 -17 8 -25 4 -8 54 -154 111 -325 154 -461 194
-550 254 -557 34 -4 79 7 140 34 26 12 49 22 52 23 3 1 30 13 60 27 45 22 173
79 388 174 83 37 102 45 177 74 295 117 542 195 790 248 154 34 220 42 430 57
50 3 97 7 105 9 8 1 38 6 65 11 73 11 87 21 50 35 -67 26 -266 79 -355 95
-110 19 -409 28 -515 15 -142 -18 -161 -21 -275 -46 -265 -59 -612 -186 -943
-344 -49 -23 -90 -40 -91 -38 -2 1 -13 46 -26 98 -27 115 -142 466 -200 610
-111 280 -247 502 -411 674 -163 171 -246 220 -384 225 l-60 2 65 -67z"/>
<path d="M12250 5690 c-14 -5 -64 -21 -112 -35 -85 -25 -121 -51 -57 -41 39 6
74 -7 83 -31 4 -10 7 -207 6 -437 0 -469 1 -457 -70 -476 -80 -21 -41 -30 135
-30 96 0 175 4 175 9 0 5 -20 14 -44 20 -24 6 -49 18 -57 27 -11 14 -14 107
-14 507 0 315 -4 491 -10 493 -6 1 -21 -2 -35 -6z"/>
<path d="M12631 5674 c-60 -77 26 -175 100 -115 18 14 24 29 24 61 0 32 -6 47
-24 61 -34 27 -75 24 -100 -7z"/>
<path d="M16420 5683 c-19 -8 -42 -17 -50 -19 -52 -12 -105 -33 -108 -42 -2
-6 13 -12 35 -14 26 -2 41 -9 48 -24 15 -31 13 -852 -3 -881 -7 -12 -28 -27
-47 -33 -67 -22 -35 -30 126 -30 124 0 160 3 157 13 -3 6 -16 13 -31 15 -15 2
-35 14 -46 28 -18 23 -20 43 -21 253 l-1 228 28 28 c58 58 147 79 193 45 38
-28 47 -90 45 -315 -1 -231 -5 -249 -57 -263 -17 -4 -33 -13 -36 -20 -3 -9 35
-12 152 -12 95 0 156 4 156 10 0 5 -11 12 -24 16 -14 3 -33 15 -43 26 -16 18
-19 46 -23 272 -5 245 -6 252 -30 296 -39 69 -77 90 -160 87 -73 -3 -131 -31
-177 -86 l-22 -26 -2 30 c0 17 -1 120 -2 229 -1 123 -6 200 -12 202 -5 1 -26
-5 -45 -13z"/>
<path d="M18613 5663 c-57 -19 -103 -39 -103 -44 0 -5 18 -9 39 -9 44 0 71
-20 72 -53 0 -12 1 -205 1 -428 0 -288 -3 -412 -11 -427 -6 -12 -24 -25 -39
-29 -32 -9 -39 -10 -52 -12 -5 0 -10 -6 -10 -11 0 -7 59 -10 170 -8 106 2 170
7 169 13 -1 6 -6 9 -11 7 -23 -6 -77 20 -84 41 -10 28 -12 307 -2 301 3 -2 54
-72 113 -154 100 -140 120 -183 87 -186 -6 -1 -16 -2 -22 -3 -5 0 -10 -5 -10
-11 0 -6 60 -10 160 -10 98 0 160 4 160 10 0 5 -12 13 -27 16 -61 15 -106 58
-218 209 -41 55 -78 105 -82 110 -5 6 -21 29 -37 52 l-29 43 39 38 c87 86 181
166 209 178 17 7 46 14 65 16 18 2 36 10 38 16 3 9 -35 12 -147 12 -94 0 -151
-4 -151 -10 0 -5 7 -11 15 -11 8 -1 20 -3 25 -4 6 -1 15 -3 20 -4 6 0 10 -10
10 -22 0 -13 -38 -58 -107 -125 -60 -57 -110 -104 -113 -104 -3 0 -5 143 -5
317 0 275 -2 318 -15 319 -8 1 -61 -14 -117 -33z"/>
<path d="M11413 5668 c-6 -13 -64 -158 -129 -323 -156 -400 -230 -581 -252
-619 -9 -17 -34 -39 -55 -49 -20 -10 -37 -23 -37 -28 0 -5 64 -9 145 -9 88 0
145 4 145 10 0 5 -12 12 -27 15 -88 19 -90 52 -12 260 l20 55 189 0 188 0 35
-87 c32 -81 39 -106 52 -170 5 -28 -19 -53 -49 -53 -12 0 -31 -7 -42 -15 -17
-13 2 -14 174 -15 111 0 192 4 192 9 0 5 -16 15 -35 21 -46 15 -53 27 -125
206 -34 82 -65 158 -70 169 -5 11 -19 45 -31 75 -12 30 -27 69 -34 85 -7 17
-48 116 -90 220 -110 272 -107 265 -125 265 -9 0 -21 -10 -27 -22z m65 -398
c35 -91 68 -177 72 -192 l9 -28 -160 0 c-87 0 -159 1 -159 3 0 2 17 48 39 103
131 336 122 315 129 294 3 -8 34 -89 70 -180z"/>
<path d="M14942 5673 c-133 -47 -201 -224 -138 -358 28 -62 75 -105 219 -200
184 -123 218 -162 219 -258 2 -112 -78 -182 -196 -172 -97 8 -193 88 -242 200
-20 46 -34 65 -47 65 -15 0 -17 -6 -12 -42 3 -24 8 -63 11 -88 3 -25 9 -74 14
-110 5 -36 10 -71 10 -77 0 -20 38 -15 45 6 10 31 33 33 116 6 103 -32 223
-31 290 4 105 54 162 147 161 262 0 123 -48 187 -232 311 -212 143 -250 183
-250 262 0 150 192 192 318 68 34 -34 76 -110 87 -159 5 -24 12 -33 27 -33 19
0 20 4 14 58 -3 31 -8 91 -12 132 -4 41 -8 82 -10 90 -1 8 -3 23 -3 33 -1 23
-28 22 -41 -2 -16 -31 -42 -33 -120 -6 -84 29 -162 31 -228 8z"/>
<path d="M8800 5658 c0 -8 15 -14 39 -14 50 -2 79 -19 92 -52 7 -17 11 -176
11 -438 0 -480 4 -461 -85 -484 -31 -8 -57 -18 -57 -22 0 -4 125 -8 278 -8
303 0 365 8 444 56 98 59 142 187 108 313 -17 64 -114 146 -204 171 -15 4 -9
9 25 20 63 21 125 86 134 141 30 173 -39 275 -213 315 -78 18 -572 20 -572 2z
m507 -63 c46 -10 107 -66 122 -113 8 -24 12 -65 9 -101 -4 -50 -9 -66 -34 -92
-48 -52 -79 -61 -256 -73 l-57 -4 2 189 c2 156 5 191 17 199 16 10 143 7 197
-5z m20 -471 c103 -35 142 -91 143 -204 0 -97 -28 -146 -104 -185 -53 -26 -70
-29 -152 -30 -63 0 -97 4 -106 13 -10 10 -13 66 -15 224 l-1 210 93 -6 c52 -3
115 -13 142 -22z"/>
<path d="M12636 5311 c-61 -20 -112 -43 -114 -50 -3 -10 2 -11 19 -6 33 10 31
10 56 1 12 -4 25 -16 28 -26 11 -34 8 -493 -4 -522 -7 -19 -21 -30 -47 -37
-20 -6 -41 -8 -46 -5 -4 3 -8 -2 -8 -10 0 -14 23 -16 176 -16 157 0 175 2 164
15 -7 9 -18 14 -24 12 -21 -8 -64 22 -73 50 -5 15 -9 164 -8 331 0 166 -2 302
-5 301 -3 0 -54 -17 -114 -38z"/>
<path d="M13134 5337 c-75 -29 -117 -86 -120 -164 -4 -101 39 -157 192 -248
60 -36 103 -68 115 -88 64 -105 -48 -205 -165 -147 -48 23 -82 69 -103 140
-25 87 -38 63 -38 -75 0 -69 3 -125 8 -125 5 0 15 6 22 14 11 10 24 11 57 4
134 -31 224 -17 287 44 38 38 51 66 56 125 8 90 -50 162 -192 239 -131 72
-167 121 -139 189 17 40 39 56 82 61 77 7 139 -40 165 -125 20 -68 34 -44 34
58 0 104 -5 122 -29 98 -14 -14 -22 -14 -68 -1 -64 17 -122 17 -164 1z"/>
<path d="M13763 5326 c-91 -43 -138 -136 -97 -194 10 -15 25 -22 49 -22 46 0
68 32 61 91 -5 48 5 73 36 90 56 30 134 15 158 -31 15 -28 20 -158 6 -168 -6
-5 -30 -16 -52 -25 -91 -35 -195 -91 -232 -126 -40 -36 -72 -106 -72 -157 0
-37 26 -91 57 -119 60 -52 151 -45 247 19 l64 43 5 -26 c11 -51 31 -66 89 -66
44 0 62 5 91 28 25 19 37 36 37 53 0 24 -1 24 -22 10 -12 -9 -30 -16 -39 -16
-38 0 -42 23 -44 258 -2 238 -8 275 -53 326 -53 59 -196 75 -289 32z m222
-405 c-1 -163 -14 -189 -106 -206 -67 -12 -129 42 -129 111 0 42 37 109 75
138 24 19 150 86 160 86 1 0 0 -58 0 -129z"/>
<path d="M15809 5334 c-83 -25 -175 -126 -208 -227 -30 -90 -21 -239 20 -318
45 -89 124 -147 214 -156 74 -8 136 12 190 59 42 37 117 144 121 174 4 28 -23
13 -56 -31 -84 -113 -235 -122 -317 -20 -54 66 -72 129 -69 235 2 80 6 103 29
147 46 89 133 132 202 101 22 -10 55 -71 55 -102 0 -28 41 -66 71 -66 56 0 86
59 57 113 -47 90 -183 130 -309 91z"/>
<path d="M17255 5331 c-100 -45 -162 -131 -192 -266 -6 -31 -6 -150 1 -173 4
-11 8 -29 10 -39 7 -34 33 -87 64 -129 93 -127 299 -124 413 4 50 58 93 138
84 161 -7 17 -11 13 -78 -72 -12 -16 -42 -39 -67 -51 -102 -53 -222 -10 -279
100 -22 42 -51 169 -44 192 4 9 58 12 227 12 l223 0 -8 54 c-4 29 -15 70 -24
90 -23 48 -94 109 -143 124 -57 17 -141 14 -187 -7z m150 -68 c25 -19 55 -80
55 -113 0 -19 -7 -20 -145 -20 -93 0 -145 4 -145 10 0 19 30 84 48 104 42 47
135 57 187 19z"/>
<path d="M17853 5317 c-120 -42 -123 -45 -51 -61 16 -4 30 -15 34 -29 11 -32
12 -477 1 -511 -6 -18 -22 -33 -43 -42 -68 -28 -49 -34 115 -34 89 0 161 4
161 8 0 5 -18 14 -39 21 -29 8 -42 19 -49 40 -6 16 -10 127 -10 250 l-1 221
46 40 c25 22 51 40 57 41 6 0 22 3 36 5 39 7 77 -14 96 -54 16 -32 18 -66 18
-259 0 -245 -5 -264 -65 -285 -59 -20 -25 -28 126 -28 146 0 195 10 125 25
-56 12 -60 27 -62 296 -3 238 -4 245 -28 294 -34 67 -79 97 -145 94 -60 -3
-94 -18 -157 -71 l-48 -39 -1 33 c-1 18 0 43 1 56 2 28 -5 27 -117 -11z"/>
<path d="M9820 5331 c0 -6 12 -16 27 -23 36 -17 51 -46 187 -359 l116 -266
-16 -54 c-20 -70 -72 -167 -95 -180 -12 -6 -32 -4 -61 6 -78 27 -120 15 -133
-38 -17 -65 33 -117 110 -117 74 0 130 52 185 172 24 55 118 311 194 528 20
60 81 228 94 261 6 15 22 35 36 47 14 11 26 23 26 26 0 3 -45 6 -100 6 -60 0
-100 -4 -100 -10 0 -8 14 -14 23 -8 1 1 12 -4 25 -11 35 -19 38 -10 -96 -389
-16 -47 -28 -69 -33 -60 -31 55 -169 393 -169 413 0 28 18 39 73 44 4 1 7 6 7
11 0 6 -57 10 -150 10 -88 0 -150 -4 -150 -9z"/>
</g>
</svg>
